<svg xmlns="http://www.w3.org/2000/svg" viewBox="0 0 2000 2000"><path d="M891.75 1701.32c-12.31-10.66-28.37-8.68-42.68-12.03-291.12-68.17-499.88-291.89-546.31-586.08-58.79-372.47 208.5-737.83 582.11-795.69 346.24-53.62 670.07 140.86 783.32 470.44 136.75 397.98-118.1 836.18-531.63 914.59-11.47 2.17-24.13.89-34.24 8.76H891.74Zm108.71-1340.29c-338.02-3.82-643.21 269.44-642.28 641.68.94 375.55 308.04 641.85 641.82 640.45 355.93-1.49 642.76-286.91 642.47-642.23-.29-354.17-287.05-639.99-642.01-639.9Z" style="fill:#f86b4c"/><path d="M1000.46 361.03c354.96-.09 641.72 285.73 642.01 639.9.29 355.32-286.55 640.73-642.47 642.23-333.78 1.4-640.88-264.9-641.82-640.45-.93-372.24 304.27-645.5 642.28-641.68Zm453.84 561.7c15.59-13.59 19.34-31.36 13.1-49.63-13.77-40.33-37.04-78.86-79.27-87.42-43.12-8.74-44.92-33.26-48.57-66.53-12.47-113.66-83.65-182.16-191.14-186.41-15.72-.62-38.31-5.66-38.38 19.55-.06 23.26 20.95 19.02 36.57 19.29 69.72 1.19 117.38 32.83 142.04 94.73 11.95 30 15.93 61.63 18.64 93.56 1 11.77-3.95 15.93-14.69 18.28-44.83 9.78-74.94 38.22-95.78 77.64-14.08 26.64-12.29 40.9 7.22 63.91-.07 19.76-.13 39.53-.2 59.29-1.79 13.58-3.53 27.16-5.39 40.73-17.14 124.63-106.31 228.14-229.01 255.95-92.32 20.92-186.25 13.3-279.39-1.54-35.31-5.63-68.21-22.08-104.6-22.29-21.98-.13-40.84 5.8-50.72 27.63-10.23 22.59-2.41 41.26 13.18 58.17 16.3 17.68 37.81 28.03 57.5 40.89 120.36 78.61 251.08 108.1 393.93 85.55 222.94-35.19 416-231.11 447.74-456.37 6-28.02 9.6-56.24 7.22-84.96Z" style="fill:#d8d8d7"/><path d="M1203.84 978.98c.07-19.76.13-39.53.2-59.29 18.49 9.69 36.74 3.12 54.72-1.47 14.4-3.67 27.57-2.82 36.79 9.34 13.79 18.2 32.69 25.58 54.03 29.1 7.54 35.51 5.38 70.87-2.87 105.85-21.4 90.79-71.89 162.64-143.73 221.09-97.87 79.64-211.24 117.27-335.63 124.92-34.95 2.15-70.12.74-105.19.96-68.79-16.66-126.57-54.67-183.27-94.62-5.76-4.06-13.9-9.93-9.74-18.48 3.81-7.82 13.21-7.2 20.62-5.96 13.45 2.25 26.87 5.12 39.99 8.83 105.02 29.69 212.6 35.6 319.42 20.54 159.54-22.5 279.98-160.31 290.12-321.73.64-10.26.94-20.27-9.33-26.15-10.71-6.14-18.77-.31-26.12 7.07Z" style="fill:#e75946"/><path d="M1203.84 978.98c7.35-7.38 15.41-13.21 26.12-7.07 10.27 5.88 9.97 15.89 9.33 26.15-10.14 161.43-130.58 299.23-290.12 321.73-106.82 15.06-214.4 9.15-319.42-20.54-13.12-3.71-26.54-6.58-39.99-8.83-7.42-1.24-16.82-1.86-20.62 5.96-4.16 8.54 3.98 14.42 9.74 18.48 56.7 39.95 114.49 77.96 183.28 94.62 3.41 1.49 6.69 3.47 10.25 4.42 145.34 38.45 282.68 19.87 408.79-62.47 123.38-80.56 196.46-196.36 227.09-339.55 2.32-10.86 4.24-21.78 17.54-23.31 13.51-1.55 18.45 7.97 21.25 19.12-31.73 225.26-224.79 421.17-447.74 456.37-142.84 22.55-273.56-6.94-393.93-85.55-19.69-12.86-41.2-23.22-57.5-40.89-15.59-16.91-23.41-35.58-13.18-58.17 9.89-21.83 28.75-27.76 50.72-27.63 36.38.22 69.29 16.67 104.6 22.29 93.14 14.85 187.07 22.46 279.39 1.54 122.7-27.8 211.88-131.31 229.01-255.95 1.87-13.57 3.6-27.15 5.39-40.73Z" style="fill:#080403"/><path d="M1349.56 956.67c-21.34-3.52-40.24-10.9-54.03-29.1-9.21-12.17-22.38-13.02-36.79-9.34-17.98 4.59-36.23 11.16-54.72 1.47-19.5-23.01-21.3-37.27-7.22-63.91 20.84-39.42 50.95-67.86 95.78-77.64 10.74-2.34 15.69-6.5 14.69-18.28-2.71-31.93-6.69-63.56-18.64-93.56-24.66-61.9-72.32-93.54-142.04-94.73-15.62-.27-36.63 3.97-36.57-19.29.07-25.21 22.66-20.17 38.38-19.55 107.49 4.25 178.67 72.75 191.14 186.41 3.65 33.28 5.45 57.79 48.57 66.53 42.23 8.56 65.5 47.09 79.27 87.42 6.24 18.27 2.49 36.04-13.1 49.64-33.16 16.69-67.26 30.5-104.73 33.93Zm-27.48-141.62c-42.54-.03-79.57 26.74-92.52 68.62 41.76-13.26 77.97-7.19 106.18 27.47.77.95 2.83.85 4.3 1.24 28.04 8.05 51.16-7.22 75.77-15.74 15-5.19 14.79-14.1 8.86-26.48-19.16-40.01-51.4-57.59-102.59-55.11Z" style="fill:#050504"/><path d="M1349.56 956.67c37.47-3.43 71.56-17.24 104.73-33.93 2.38 28.72-1.22 56.94-7.22 84.96-2.8-11.15-7.74-20.67-21.25-19.12-13.31 1.53-15.22 12.44-17.54 23.31-30.62 143.19-103.7 258.99-227.09 339.55-126.11 82.34-263.45 100.92-408.79 62.47-3.55-.94-6.83-2.92-10.25-4.42 35.06-.22 70.23 1.19 105.18-.96 124.39-7.65 237.77-45.28 335.63-124.92 71.83-58.45 122.33-130.3 143.73-221.09 8.25-34.98 10.4-70.34 2.87-105.85Z" style="fill:#cf2f27"/><path d="M1340.03 912.37c-1.46-.39-3.52-.29-4.3-1.24-28.2-34.66-64.42-40.73-106.18-27.47 12.95-41.88 49.98-68.65 92.52-68.62 48.83 38.74 53.1 61.93 17.95 97.33Z" style="fill:#adc832"/><path d="M1340.03 912.37c35.15-35.4 30.87-58.58-17.95-97.33 51.19-2.48 83.42 15.1 102.59 55.11 5.93 12.38 6.13 21.29-8.86 26.48-24.61 8.51-47.73 23.78-75.77 15.74Z" style="fill:#5b9b30"/></svg>